# xmcd
# 
# Track frame offsets:
#     150
#     15970
#     28249
#     41270
#     54268
#     66793
#     76813
#     89163
#     100648
#     114050
#     125897
#     138589
#     150988
#     162083
# 
# Disc length: 2366
# 
# Revision: 0
# Processed by: cddbd v1.5.2PL0 Copyright (c) Steve Scherf et al.
# Submitted via: fre:ac v1.0.17
# 
DISCID=a2093c0e
DTITLE=Various Artist - BLOWIN' MY MIND! -DEEP SOUTH HARMONICA BLUES-
DYEAR=2005
DGENRE=Blues
TTITLE0=Joe Jonas - Blues From Beaumont Texas [Edited Version]
TTITLE1=Sonny Boy Williamson - Cool Disposition
TTITLE2=Cannon's Jug Stompers feat. Noah Lewis - Noah's Blues
TTITLE3=Sonny Terry - Doggin' My Heart Around
TTITLE4=Yank Rachel feat. Sonny Boy Williamson - 38 Pistol Blues
TTITLE5=Sunny Blair - Step Back Baby
TTITLE6=Driftin Slim - Down South Blues
TTITLE7=Joe Hill Louis - Blue In The Morning
TTITLE8="Mumbles" aka Walter Horton - Little Boy Blue
TTITLE9=Houston Boines - Relation Blues
TTITLE10=Dixie Blues Boys - Monte Carlo
TTITLE11=Jimmy Reed - I Love You Baby
TTITLE12=Elmore James with Sam Myers - Look On Yonder Wall
TTITLE13=Howlin' Wolf - Sweet Woman
EXTD=blues and soul records No.63
EXTT0=
EXTT1=
EXTT2=
EXTT3=
EXTT4=
EXTT5=
EXTT6=
EXTT7=
EXTT8=
EXTT9=
EXTT10=
EXTT11=
EXTT12=
EXTT13=
PLAYORDER=
